<svg xmlns="http://www.w3.org/2000/svg" xmlns:xlink="http://www.w3.org/1999/xlink" width="1200" zoomAndPan="magnify" viewBox="0 0 900 322.499991" height="430" preserveAspectRatio="xMidYMid meet" version="1.0"><defs><g/><clipPath id="7344e735cf"><path d="M 0.695312 0 L 884 0 L 884 322 L 0.695312 322 Z M 0.695312 0 " clip-rule="nonzero"/></clipPath><clipPath id="b5464b98f5"><path d="M 88 66 L 883.726562 66 L 883.726562 322 L 88 322 Z M 88 66 " clip-rule="nonzero"/></clipPath><clipPath id="d854f41a0f"><rect x="0" width="796" y="0" height="256"/></clipPath><clipPath id="0921e1f485"><path d="M 0.695312 0 L 332 0 L 332 264 L 0.695312 264 Z M 0.695312 0 " clip-rule="nonzero"/></clipPath><clipPath id="2d9dd387e4"><path d="M -12.074219 142.613281 L 262.742188 -13.933594 L 331.644531 107.023438 L 56.828125 263.570312 Z M -12.074219 142.613281 " clip-rule="nonzero"/></clipPath><clipPath id="c144f3800e"><path d="M 7 19 L 283 19 L 283 245 L 7 245 Z M 7 19 " clip-rule="nonzero"/></clipPath><clipPath id="cdba35cecf"><path d="M -12.074219 142.613281 L 262.742188 -13.933594 L 331.644531 107.023438 L 56.828125 263.570312 Z M -12.074219 142.613281 " clip-rule="nonzero"/></clipPath><clipPath id="411716b464"><path d="M 263.117188 -14.148438 L -11.699219 142.402344 L 57.203125 263.355469 L 332.019531 106.808594 Z M 263.117188 -14.148438 " clip-rule="nonzero"/></clipPath><clipPath id="15d6c197ec"><path d="M 23 28 L 267 28 L 267 204 L 23 204 Z M 23 28 " clip-rule="nonzero"/></clipPath><clipPath id="177f7237de"><path d="M -12.074219 142.613281 L 262.742188 -13.933594 L 331.644531 107.023438 L 56.828125 263.570312 Z M -12.074219 142.613281 " clip-rule="nonzero"/></clipPath><clipPath id="fd585832d1"><path d="M 263.117188 -14.148438 L -11.699219 142.402344 L 57.203125 263.355469 L 332.019531 106.808594 Z M 263.117188 -14.148438 " clip-rule="nonzero"/></clipPath><clipPath id="f087bed0ac"><path d="M 49 95 L 137 95 L 137 245 L 49 245 Z M 49 95 " clip-rule="nonzero"/></clipPath><clipPath id="7b3c7cf472"><path d="M -12.074219 142.613281 L 262.742188 -13.933594 L 331.644531 107.023438 L 56.828125 263.570312 Z M -12.074219 142.613281 " clip-rule="nonzero"/></clipPath><clipPath id="94fb18f72d"><path d="M 263.117188 -14.148438 L -11.699219 142.402344 L 57.203125 263.355469 L 332.019531 106.808594 Z M 263.117188 -14.148438 " clip-rule="nonzero"/></clipPath><clipPath id="3a806ce998"><path d="M 50 107 L 116 107 L 116 228 L 50 228 Z M 50 107 " clip-rule="nonzero"/></clipPath><clipPath id="8b30afa411"><path d="M -12.074219 142.613281 L 262.742188 -13.933594 L 331.644531 107.023438 L 56.828125 263.570312 Z M -12.074219 142.613281 " clip-rule="nonzero"/></clipPath><clipPath id="2f4c76a9af"><path d="M 263.117188 -14.148438 L -11.699219 142.402344 L 57.203125 263.355469 L 332.019531 106.808594 Z M 263.117188 -14.148438 " clip-rule="nonzero"/></clipPath><clipPath id="dcc8c220ac"><rect x="0" width="332" y="0" height="264"/></clipPath><clipPath id="96550e0f11"><rect x="0" width="884" y="0" height="322"/></clipPath></defs><g clip-path="url(#7344e735cf)"><g transform="matrix(1, 0, 0, 1, 0.000000000000000111, 0)"><g clip-path="url(#96550e0f11)"><g clip-path="url(#b5464b98f5)"><g transform="matrix(1, 0, 0, 1, 88, 66)"><g clip-path="url(#d854f41a0f)"><g fill="#000000" fill-opacity="1"><g transform="translate(10.650776, 203.724571)"><g><path d="M 107.78125 -185.625 L 182.703125 0 L 137.25 0 L 123.53125 -37.125 L 52.875 -37.125 L 39.15625 0 L -6.296875 0 L 68.625 -185.625 Z M 109.125 -74.25 L 88.421875 -128.25 L 87.96875 -128.25 L 67.28125 -74.25 Z M 109.125 -74.25 "/></g></g></g><g fill="#000000" fill-opacity="1"><g transform="translate(187.023156, 203.724571)"><g><path d="M 145.34375 -115.421875 L 90.453125 -60.296875 L 150.75 0 L 99.453125 0 L 53.328125 -46.125 L 53.328125 0 L 13.5 0 L 13.5 -193.5 L 53.328125 -193.5 L 53.328125 -75.15625 L 93.59375 -115.421875 Z M 145.34375 -115.421875 "/></g></g></g><g fill="#000000" fill-opacity="1"><g transform="translate(332.350409, 203.724571)"><g><path d="M 21.375 -14.28125 C 10.570312 -26.0625 5.171875 -40.5 5.171875 -57.59375 C 5.171875 -74.695312 10.570312 -89.171875 21.375 -101.015625 C 32.175781 -112.867188 45.898438 -118.796875 62.546875 -118.796875 C 77.847656 -118.796875 90.445312 -114 100.34375 -104.40625 L 100.34375 -115.421875 L 140.171875 -115.421875 L 140.171875 0 L 100.796875 0 L 100.796875 -13.046875 L 100.34375 -13.046875 C 90.445312 -2.097656 77.847656 3.375 62.546875 3.375 C 45.898438 3.375 32.175781 -2.507812 21.375 -14.28125 Z M 55.234375 -77.171875 C 50.054688 -72.078125 47.46875 -65.550781 47.46875 -57.59375 C 47.46875 -49.644531 49.941406 -43.15625 54.890625 -38.125 C 59.847656 -33.101562 66.375 -30.59375 74.46875 -30.59375 C 82.269531 -30.59375 88.679688 -33.144531 93.703125 -38.25 C 98.734375 -43.351562 101.25 -49.800781 101.25 -57.59375 C 101.25 -65.550781 98.660156 -72.078125 93.484375 -77.171875 C 88.304688 -82.273438 81.96875 -84.828125 74.46875 -84.828125 C 66.820312 -84.828125 60.410156 -82.273438 55.234375 -77.171875 Z M 55.234375 -77.171875 "/></g></g></g><g fill="#000000" fill-opacity="1"><g transform="translate(486.00133, 203.724571)"><g><path d="M 21.375 -14.28125 C 10.570312 -26.0625 5.171875 -40.5 5.171875 -57.59375 C 5.171875 -74.695312 10.570312 -89.171875 21.375 -101.015625 C 32.175781 -112.867188 45.898438 -118.796875 62.546875 -118.796875 C 77.847656 -118.796875 90.445312 -114 100.34375 -104.40625 L 100.34375 -193.5 L 140.171875 -193.5 L 140.171875 0 L 100.796875 0 L 100.796875 -13.046875 L 100.34375 -13.046875 C 90.445312 -2.097656 77.847656 3.375 62.546875 3.375 C 45.898438 3.375 32.175781 -2.507812 21.375 -14.28125 Z M 55.234375 -77.171875 C 50.054688 -72.078125 47.46875 -65.550781 47.46875 -57.59375 C 47.46875 -49.644531 49.941406 -43.15625 54.890625 -38.125 C 59.847656 -33.101562 66.375 -30.59375 74.46875 -30.59375 C 82.269531 -30.59375 88.679688 -33.144531 93.703125 -38.25 C 98.734375 -43.351562 101.25 -49.800781 101.25 -57.59375 C 101.25 -65.550781 98.660156 -72.078125 93.484375 -77.171875 C 88.304688 -82.273438 81.96875 -84.828125 74.46875 -84.828125 C 66.820312 -84.828125 60.410156 -82.273438 55.234375 -77.171875 Z M 55.234375 -77.171875 "/></g></g></g><g fill="#000000" fill-opacity="1"><g transform="translate(639.65225, 203.724571)"><g><path d="M 21.375 -14.28125 C 10.570312 -26.0625 5.171875 -40.5 5.171875 -57.59375 C 5.171875 -74.695312 10.570312 -89.171875 21.375 -101.015625 C 32.175781 -112.867188 45.898438 -118.796875 62.546875 -118.796875 C 77.847656 -118.796875 90.445312 -114 100.34375 -104.40625 L 100.34375 -115.421875 L 140.171875 -115.421875 L 140.171875 0 L 100.796875 0 L 100.796875 -13.046875 L 100.34375 -13.046875 C 90.445312 -2.097656 77.847656 3.375 62.546875 3.375 C 45.898438 3.375 32.175781 -2.507812 21.375 -14.28125 Z M 55.234375 -77.171875 C 50.054688 -72.078125 47.46875 -65.550781 47.46875 -57.59375 C 47.46875 -49.644531 49.941406 -43.15625 54.890625 -38.125 C 59.847656 -33.101562 66.375 -30.59375 74.46875 -30.59375 C 82.269531 -30.59375 88.679688 -33.144531 93.703125 -38.25 C 98.734375 -43.351562 101.25 -49.800781 101.25 -57.59375 C 101.25 -65.550781 98.660156 -72.078125 93.484375 -77.171875 C 88.304688 -82.273438 81.96875 -84.828125 74.46875 -84.828125 C 66.820312 -84.828125 60.410156 -82.273438 55.234375 -77.171875 Z M 55.234375 -77.171875 "/></g></g></g></g></g></g><g clip-path="url(#0921e1f485)"><g clip-path="url(#2d9dd387e4)"><g transform="matrix(1, 0, 0, 1, 0.000000000000000111, 0)"><g clip-path="url(#dcc8c220ac)"><g clip-path="url(#c144f3800e)"><g clip-path="url(#cdba35cecf)"><g clip-path="url(#411716b464)"><path fill="#000000" d="M 72.164062 244.640625 C 73.671875 245.496094 75.199219 244.261719 76.359375 243.160156 C 78.84375 240.820312 79.734375 237.507812 81.390625 234.414062 C 83.292969 237.242188 84.378906 240.402344 86.808594 242.605469 C 87.566406 243.292969 88.257812 244.671875 89.535156 244.128906 C 90.789062 243.589844 90.390625 242.226562 90.367188 241.136719 C 90.300781 237 88.605469 233.394531 86.351562 229.558594 C 89.027344 230.449219 91.058594 231.96875 93.480469 232.386719 C 94.46875 232.558594 95.515625 233.140625 96.460938 232.546875 C 97.414062 231.957031 98.980469 232.214844 99.230469 230.578125 C 99.480469 228.917969 98.105469 228.636719 97.148438 227.996094 C 93.578125 225.59375 89.355469 224.371094 85.894531 221.765625 C 85.136719 220.933594 84.375 220.101562 83.621094 219.269531 C 84.292969 212.835938 82.917969 210.628906 76.539062 207.878906 C 76.589844 206.40625 75.765625 205.292969 75.027344 204.136719 C 73.882812 201.386719 72.746094 198.632812 71.601562 195.878906 C 71.125 194.675781 70.65625 193.46875 70.1875 192.273438 C 68.738281 188.957031 67.28125 185.640625 65.835938 182.320312 C 65.125 181.042969 64.417969 179.761719 63.710938 178.480469 C 62.875 175.726562 61.75 173.097656 60.386719 170.5625 C 59.679688 169.246094 58.96875 167.921875 58.269531 166.601562 C 57.324219 166.351562 56.40625 166.007812 55.484375 165.679688 C 56.410156 166.011719 57.328125 166.355469 58.269531 166.601562 C 58.570312 165.394531 57.753906 164.519531 57.261719 163.601562 C 56.371094 161.953125 56.742188 160.878906 58.417969 160.171875 C 64.851562 158.296875 71.320312 156.527344 77.710938 154.511719 C 82.46875 153.011719 82.503906 152.824219 84.746094 157.058594 C 87.8125 162.847656 91.351562 168.371094 94.503906 174.097656 C 98.292969 180.980469 101.464844 188.199219 105.03125 195.199219 C 107.015625 199.097656 109.316406 202.839844 111.363281 206.710938 C 111.9375 207.796875 112.75 207.378906 113.480469 207.40625 C 120.230469 207.695312 126.820312 206.449219 133.398438 205.136719 C 140.421875 203.738281 147.359375 202.023438 154.214844 199.90625 C 163.527344 197.019531 172.644531 193.640625 181.253906 189.082031 C 191.070312 183.875 200.980469 178.746094 210.046875 172.300781 C 226.003906 160.949219 240.132812 147.621094 251.804688 131.828125 C 256.316406 125.722656 256.316406 125.554688 252.28125 119.203125 C 249.417969 114.699219 246.585938 110.175781 243.558594 105.761719 C 240.226562 100.894531 237.800781 95.410156 234.515625 90.5 C 230.980469 85.214844 228.164062 79.582031 225.179688 74.007812 C 224.351562 72.464844 224.703125 71.660156 225.707031 70.746094 C 231.402344 65.535156 237.109375 60.320312 242.839844 55.140625 C 248.105469 50.390625 253.347656 45.621094 258.699219 40.980469 C 265.328125 35.238281 272.191406 29.765625 278.597656 23.761719 C 279.953125 22.511719 281.246094 21.230469 282.308594 19.542969 C 280.070312 19.039062 278.285156 20.011719 276.476562 20.523438 C 266.566406 23.335938 256.671875 26.171875 246.8125 29.148438 C 235.472656 32.570312 223.902344 35.121094 212.542969 38.4375 C 198.742188 42.464844 184.871094 46.257812 171.128906 50.441406 C 162.59375 53.039062 154.035156 55.609375 145.550781 58.402344 C 139.445312 60.40625 133.378906 62.5 127.101562 63.925781 C 125.800781 64.222656 124.855469 65.03125 123.90625 65.988281 C 116.03125 73.882812 107.496094 81.0625 99.300781 88.613281 C 91.355469 95.929688 83.214844 103.039062 75.414062 110.523438 C 70.558594 115.183594 65.707031 119.855469 60.78125 124.441406 C 55.683594 129.1875 50.566406 133.933594 45.746094 138.953125 C 39.109375 145.871094 31.867188 152.121094 24.855469 158.632812 C 19.191406 163.894531 13.699219 169.332031 8.121094 174.675781 C 7.707031 175.074219 7.304688 175.445312 7.265625 176.554688 C 21.832031 172.980469 35.585938 167.1875 49.847656 163.066406 C 50.144531 163.574219 50.4375 164.078125 50.730469 164.589844 C 51.332031 165.738281 51.179688 167.175781 52.117188 168.195312 C 53.9375 171 54.039062 174.652344 56.527344 177.136719 C 56.292969 178.5 57.253906 179.410156 57.820312 180.464844 C 59.570312 184.214844 60.503906 188.339844 62.984375 191.761719 C 63.390625 192.84375 63.785156 193.921875 64.183594 195.007812 C 65.882812 199.085938 67.570312 203.160156 69.265625 207.238281 C 69.800781 208.539062 70.695312 209.691406 70.847656 211.140625 C 70.0625 214.394531 69.445312 217.546875 71.53125 220.695312 C 72.578125 222.285156 73.976562 223.113281 75.515625 223.945312 C 76.089844 225.039062 75.246094 226.066406 75.367188 227.140625 C 75.285156 231.089844 74.292969 234.816406 72.6875 238.40625 C 72.347656 239.167969 72.109375 239.976562 71.921875 240.789062 C 71.613281 242.117188 70.785156 243.859375 72.164062 244.640625 Z M 72.164062 244.640625 " fill-opacity="1" fill-rule="nonzero"/></g></g></g><g clip-path="url(#15d6c197ec)"><g clip-path="url(#177f7237de)"><g clip-path="url(#fd585832d1)"><path fill="#7c3aed" d="M 248.46875 120.210938 C 249.207031 121.511719 249.878906 122.855469 250.707031 124.089844 C 251.570312 125.378906 251.46875 126.441406 250.511719 127.628906 C 248.058594 130.65625 245.847656 133.898438 243.234375 136.773438 C 233.921875 147.015625 224.402344 156.992188 213.058594 165.160156 C 205.519531 170.585938 198.019531 176.097656 189.882812 180.484375 C 183.644531 183.847656 177.292969 187.132812 170.65625 189.832031 C 162.558594 193.132812 154.40625 196.222656 145.964844 198.445312 C 136.253906 200.996094 126.398438 202.929688 116.371094 203.871094 C 115.105469 203.996094 114.304688 203.875 113.582031 202.710938 C 110.058594 196.984375 107.121094 190.945312 104.308594 184.871094 C 101.65625 179.144531 98.398438 173.753906 95.503906 168.171875 C 92.976562 163.304688 89.976562 158.679688 87.140625 153.980469 C 86.238281 152.484375 86.410156 151.6875 88.242188 151.203125 C 93.625 149.789062 98.996094 148.3125 104.339844 146.757812 C 121.199219 141.847656 138.144531 137.296875 155.226562 133.246094 C 160.203125 132.066406 164.722656 130.613281 168.4375 126.464844 C 174.746094 119.40625 181.761719 112.992188 188.476562 106.292969 C 198.472656 96.320312 208.765625 86.652344 219.003906 76.933594 C 220.855469 75.171875 221.660156 75.253906 222.820312 77.457031 C 225.457031 82.453125 228.125 87.441406 231.046875 92.265625 C 236.738281 101.65625 242.609375 110.929688 248.410156 120.25 C 248.429688 120.234375 248.449219 120.222656 248.46875 120.210938 Z M 48.890625 159.332031 C 40.933594 161.851562 32.972656 164.390625 25.023438 166.929688 C 24.453125 167.105469 23.796875 167.859375 23.335938 167.023438 C 22.960938 166.339844 23.683594 165.910156 24.1875 165.472656 C 26.6875 163.261719 29.253906 161.105469 31.628906 158.761719 C 37.308594 153.164062 43.023438 147.597656 48.492188 141.777344 C 53.382812 136.578125 58.734375 131.804688 63.878906 126.851562 C 71.039062 119.96875 78.097656 112.972656 85.390625 106.230469 C 91.847656 100.265625 98.742188 94.761719 105.121094 88.707031 C 112.375 81.820312 120.449219 75.804688 126.925781 68.101562 C 127.257812 67.699219 127.660156 67.574219 128.136719 67.527344 C 132.734375 67.101562 136.917969 65.144531 141.25 63.820312 C 158.46875 58.542969 175.609375 53.03125 192.9375 48.101562 C 205.890625 44.417969 218.753906 40.367188 231.882812 37.335938 C 242.847656 34.804688 253.734375 32.058594 264.433594 28.601562 C 265.0625 28.398438 265.785156 27.980469 266.222656 28.617188 C 266.769531 29.410156 265.816406 29.722656 265.386719 30.109375 C 261.601562 33.503906 257.765625 36.847656 253.984375 40.25 C 247.492188 46.082031 241.164062 52.09375 234.539062 57.761719 C 224.167969 66.636719 214.300781 76.0625 204.3125 85.347656 C 197.644531 91.535156 191.171875 97.9375 184.726562 104.363281 C 177.683594 111.382812 170.773438 118.535156 163.800781 125.636719 C 162.730469 126.726562 161.421875 127.523438 160.003906 127.929688 C 156.003906 129.078125 151.953125 130.074219 147.921875 131.09375 C 138.503906 133.476562 129.066406 135.761719 119.679688 138.246094 C 112.242188 140.214844 104.902344 142.542969 97.457031 144.488281 C 87.296875 147.140625 77.378906 150.53125 67.339844 153.566406 C 69.824219 151.679688 72.3125 149.792969 74.796875 147.90625 C 75.972656 147.046875 77.152344 146.183594 78.332031 145.324219 C 81.035156 143.195312 83.734375 141.066406 86.433594 138.929688 C 87.871094 138.445312 88.957031 137.511719 89.855469 136.324219 C 93.308594 134.277344 96.460938 131.824219 99.398438 129.082031 C 100.832031 128.140625 102.488281 127.503906 103.515625 126.019531 C 106.324219 123.757812 109.125 121.496094 111.933594 119.234375 C 113.570312 118.679688 114.472656 117.140625 115.886719 116.296875 C 122.890625 110.6875 130.085938 105.308594 136.828125 99.382812 C 140.144531 97.492188 143.476562 95.625 146.78125 93.707031 C 149.996094 91.839844 151.648438 88.777344 150.617188 86.746094 C 149.542969 84.644531 145.648438 83.851562 142.527344 85.1875 C 140.511719 86.050781 138.476562 86.925781 136.582031 88.027344 C 133.875 89.605469 132.417969 92.140625 131.785156 95.175781 C 127.746094 97.199219 124.890625 100.738281 121.347656 103.398438 C 119.429688 104.839844 117.199219 105.90625 115.625 107.800781 C 114.355469 108.875 113.082031 109.949219 111.8125 111.023438 C 108.917969 112.890625 106.398438 115.230469 103.8125 117.480469 C 102.480469 118.523438 101.15625 119.574219 99.824219 120.613281 C 96.535156 122.605469 93.789062 125.300781 90.800781 127.679688 C 88.957031 128.3125 88.054688 130.015625 86.734375 131.242188 C 83.8125 132.511719 81.441406 134.542969 79.140625 136.683594 C 78.984375 136.65625 78.796875 136.566406 78.679688 136.617188 C 78.441406 136.722656 78.46875 136.890625 78.714844 137 L 78.734375 136.929688 C 77.644531 137.695312 76.421875 138.296875 75.730469 139.515625 C 71.855469 142.21875 67.894531 144.800781 64.300781 147.898438 C 63.34375 148.46875 62.375 149.035156 61.414062 149.601562 C 59.878906 150.753906 58.828125 152.46875 57.015625 153.304688 C 54.035156 154.679688 52.144531 157.363281 49.726562 159.414062 C 49.4375 159.378906 49.132812 159.253906 48.890625 159.332031 Z M 48.890625 159.332031 " fill-opacity="1" fill-rule="nonzero"/></g></g></g><g clip-path="url(#f087bed0ac)"><g clip-path="url(#7b3c7cf472)"><g clip-path="url(#94fb18f72d)"><path fill="#000000" d="M 85.90625 221.757812 C 89.363281 224.367188 93.589844 225.589844 97.160156 227.988281 C 98.113281 228.625 99.492188 228.910156 99.242188 230.570312 C 98.992188 232.207031 97.425781 231.949219 96.472656 232.542969 C 95.527344 233.132812 94.480469 232.554688 93.492188 232.378906 C 91.066406 231.957031 89.035156 230.4375 86.363281 229.550781 C 88.613281 233.386719 90.304688 236.996094 90.378906 241.132812 C 90.394531 242.222656 90.792969 243.585938 89.546875 244.121094 C 88.261719 244.667969 87.578125 243.289062 86.820312 242.597656 C 84.390625 240.394531 83.300781 237.230469 81.402344 234.40625 C 79.746094 237.5 78.851562 240.816406 76.371094 243.15625 C 75.203125 244.257812 73.683594 245.492188 72.175781 244.632812 C 70.796875 243.851562 71.625 242.109375 71.921875 240.789062 C 72.109375 239.976562 72.347656 239.167969 72.6875 238.40625 C 74.285156 234.816406 75.285156 231.089844 75.367188 227.140625 C 79.34375 226.277344 83.042969 224.839844 85.90625 221.757812 Z M 76.550781 207.871094 C 82.929688 210.625 84.300781 212.824219 83.628906 219.265625 C 81.085938 221.105469 78.605469 223.058594 75.511719 223.949219 C 73.976562 223.125 72.578125 222.292969 71.523438 220.699219 C 69.4375 217.550781 70.054688 214.394531 70.847656 211.140625 C 72.742188 210.054688 74.648438 208.960938 76.550781 207.871094 Z M 57.003906 153.296875 C 58.816406 152.460938 59.867188 150.746094 61.402344 149.59375 C 62.671875 151.683594 61.085938 154.324219 62.691406 156.347656 C 61.804688 158.222656 59.363281 158.351562 58.429688 160.167969 C 56.75 160.875 56.382812 161.953125 57.269531 163.597656 C 57.761719 164.511719 58.582031 165.386719 58.277344 166.59375 C 55.761719 165.929688 53.421875 164.59375 50.730469 164.589844 C 50.433594 164.085938 50.136719 163.578125 49.847656 163.066406 C 49.800781 161.847656 49.757812 160.621094 49.714844 159.402344 C 52.132812 157.355469 54.019531 154.667969 57.003906 153.296875 Z M 65.847656 182.316406 C 67.300781 185.628906 68.753906 188.949219 70.199219 192.265625 C 67.792969 192.097656 65.386719 191.933594 62.980469 191.765625 C 60.5 188.34375 59.570312 184.222656 57.8125 180.46875 C 60.652344 180.421875 63.09375 182.046875 65.847656 182.316406 Z M 71.613281 195.878906 C 72.757812 198.628906 73.898438 201.386719 75.042969 204.136719 C 73.535156 205.957031 71.261719 206.34375 69.261719 207.25 C 67.566406 203.167969 65.878906 199.09375 64.183594 195.015625 C 66.660156 195.296875 69.136719 195.589844 71.613281 195.878906 Z M 56.53125 177.140625 C 54.046875 174.664062 53.9375 171.007812 52.121094 168.199219 C 55.039062 168.433594 57.496094 170.261719 60.394531 170.566406 C 61.757812 173.097656 62.886719 175.730469 63.71875 178.484375 C 61.320312 178.035156 58.925781 177.585938 56.53125 177.140625 Z M 65.121094 154.894531 C 64.84375 152.5625 64.570312 150.226562 64.289062 147.890625 C 67.878906 144.796875 71.84375 142.210938 75.714844 139.511719 C 75.628906 142.335938 75.484375 145.152344 74.78125 147.90625 C 72.300781 149.796875 69.808594 151.679688 67.324219 153.566406 C 66.59375 154.007812 65.855469 154.457031 65.121094 154.894531 Z M 115.875 116.296875 C 115.179688 113.480469 116.035156 110.621094 115.617188 107.796875 C 117.191406 105.902344 119.421875 104.835938 121.339844 103.394531 C 124.878906 100.730469 127.734375 97.191406 131.777344 95.175781 C 131.960938 97.648438 133.171875 98.980469 135.773438 98.714844 C 136.324219 98.65625 136.589844 98.972656 136.8125 99.382812 C 130.070312 105.308594 122.878906 110.691406 115.875 116.296875 Z M 99.382812 129.082031 C 96.453125 131.820312 93.300781 134.273438 89.839844 136.324219 C 89.851562 133.410156 91 130.621094 90.785156 127.679688 C 93.773438 125.300781 96.519531 122.605469 99.808594 120.617188 C 99.664062 123.433594 99.523438 126.253906 99.382812 129.082031 Z M 111.917969 119.234375 C 109.113281 121.5 106.308594 123.757812 103.5 126.019531 C 103.496094 123.171875 104.285156 120.347656 103.804688 117.480469 C 106.394531 115.230469 108.910156 112.886719 111.804688 111.019531 C 111.839844 113.757812 111.882812 116.496094 111.917969 119.234375 Z M 78.714844 136.925781 C 78.714844 136.925781 78.699219 136.996094 78.699219 136.996094 L 78.875 136.78125 C 78.875 136.78125 79.128906 136.675781 79.128906 136.675781 C 81.421875 134.539062 83.804688 132.511719 86.722656 131.234375 C 86.625 133.796875 86.523438 136.363281 86.425781 138.925781 C 83.722656 141.058594 81.023438 143.1875 78.324219 145.320312 C 78.128906 142.507812 79.273438 139.757812 78.714844 136.925781 Z M 78.714844 136.925781 " fill-opacity="1" fill-rule="nonzero"/></g></g></g><g clip-path="url(#3a806ce998)"><g clip-path="url(#8b30afa411)"><g clip-path="url(#2f4c76a9af)"><path fill="#8c52ff" d="M 85.90625 221.757812 C 83.042969 224.839844 79.339844 226.269531 75.355469 227.140625 C 75.230469 226.066406 76.074219 225.039062 75.5 223.945312 C 78.597656 223.058594 81.078125 221.105469 83.621094 219.261719 C 84.390625 220.097656 85.148438 220.929688 85.90625 221.757812 Z M 50.730469 164.589844 C 53.421875 164.59375 55.757812 165.929688 58.277344 166.59375 C 58.984375 167.914062 59.691406 169.238281 60.398438 170.558594 C 57.5 170.261719 55.035156 168.425781 52.125 168.191406 C 51.183594 167.179688 51.332031 165.738281 50.730469 164.589844 Z M 65.847656 182.316406 C 63.089844 182.042969 60.652344 180.421875 57.824219 180.472656 C 57.261719 179.414062 56.292969 178.507812 56.53125 177.140625 C 58.929688 177.589844 61.324219 178.03125 63.71875 178.484375 C 64.429688 179.757812 65.136719 181.039062 65.847656 182.316406 Z M 62.984375 191.769531 C 65.390625 191.9375 67.796875 192.105469 70.203125 192.273438 C 70.675781 193.476562 71.140625 194.675781 71.613281 195.878906 C 69.136719 195.589844 66.664062 195.300781 64.183594 195.015625 C 63.785156 193.929688 63.382812 192.847656 62.984375 191.769531 Z M 76.550781 207.871094 C 74.648438 208.960938 72.75 210.050781 70.839844 211.144531 C 70.691406 209.691406 69.796875 208.542969 69.257812 207.242188 C 71.257812 206.335938 73.53125 205.953125 75.039062 204.132812 C 75.777344 205.285156 76.605469 206.40625 76.550781 207.871094 Z M 62.683594 156.351562 C 61.078125 154.320312 62.667969 151.6875 61.398438 149.597656 C 62.355469 149.027344 63.324219 148.464844 64.285156 147.894531 C 64.5625 150.230469 64.835938 152.566406 65.117188 154.898438 C 64.3125 155.378906 63.496094 155.867188 62.683594 156.351562 Z M 99.382812 129.082031 C 99.527344 126.257812 99.667969 123.4375 99.816406 120.613281 C 101.144531 119.570312 102.472656 118.523438 103.804688 117.480469 C 104.285156 120.347656 103.496094 123.171875 103.5 126.019531 C 102.46875 127.5 100.8125 128.136719 99.382812 129.082031 Z M 115.617188 107.796875 C 116.035156 110.621094 115.175781 113.488281 115.875 116.296875 C 114.453125 117.144531 113.550781 118.683594 111.917969 119.234375 C 111.882812 116.496094 111.839844 113.757812 111.804688 111.019531 C 113.078125 109.945312 114.347656 108.871094 115.617188 107.796875 Z M 90.789062 127.671875 C 91.003906 130.609375 89.851562 133.402344 89.84375 136.316406 C 88.945312 137.503906 87.855469 138.441406 86.421875 138.921875 C 86.519531 136.359375 86.621094 133.792969 86.71875 131.230469 C 88.042969 130.007812 88.949219 128.3125 90.789062 127.671875 Z M 74.78125 147.90625 C 75.484375 145.152344 75.625 142.339844 75.714844 139.511719 C 76.40625 138.292969 77.632812 137.6875 78.714844 136.925781 C 79.273438 139.757812 78.128906 142.507812 78.316406 145.324219 C 77.140625 146.183594 75.960938 147.046875 74.78125 147.90625 Z M 78.667969 136.609375 C 78.789062 136.554688 78.972656 136.648438 79.128906 136.675781 C 79.128906 136.675781 78.875 136.78125 78.875 136.78125 L 78.699219 136.996094 C 78.453125 136.886719 78.425781 136.71875 78.667969 136.609375 Z M 78.667969 136.609375 " fill-opacity="1" fill-rule="nonzero"/></g></g></g></g></g></g></g><g fill="#000000" fill-opacity="1"><g transform="translate(426.654394, 340.129199)"><g><path d="M 92.953125 -202.078125 L 61.8125 -202.078125 L 17.328125 -254.0625 L 17.328125 -257.5625 L 69.140625 -257.5625 L 92.953125 -205.578125 Z M 92.953125 -202.078125 "/></g></g></g><g fill="#000000" fill-opacity="1"><g transform="translate(734.745048, 340.129199)"><g><path d="M 92.953125 -202.078125 L 61.8125 -202.078125 L 17.328125 -254.0625 L 17.328125 -257.5625 L 69.140625 -257.5625 L 92.953125 -205.578125 Z M 92.953125 -202.078125 "/></g></g></g></g></g></g></svg>