<svg xmlns="http://www.w3.org/2000/svg" xmlns:xlink="http://www.w3.org/1999/xlink" width="500" zoomAndPan="magnify" viewBox="0 0 375 374.999991" height="500" preserveAspectRatio="xMidYMid meet" version="1.0"><defs><g/><clipPath id="0709f1dbdd"><rect x="0" width="265" y="0" height="295"/></clipPath><clipPath id="e0afbe49a4"><path d="M 0 0 L 375 0 L 375 294 L 0 294 Z M 0 0 " clip-rule="nonzero"/></clipPath><clipPath id="75a9f5408e"><path d="M 0.00390625 163.566406 L 300.261719 -7.472656 L 374.511719 122.871094 L 74.253906 293.910156 Z M 0.00390625 163.566406 " clip-rule="nonzero"/></clipPath><clipPath id="3edb242d93"><path d="M 21 29 L 322 29 L 322 276 L 21 276 Z M 21 29 " clip-rule="nonzero"/></clipPath><clipPath id="c90b5c4436"><path d="M 0.00390625 163.566406 L 300.261719 -7.472656 L 374.511719 122.871094 L 74.253906 293.910156 Z M 0.00390625 163.566406 " clip-rule="nonzero"/></clipPath><clipPath id="8bcd93916d"><path d="M 300.078125 -7.367188 L -0.175781 163.671875 L 74.074219 294.011719 L 374.328125 122.976562 Z M 300.078125 -7.367188 " clip-rule="nonzero"/></clipPath><clipPath id="c41af2bc4f"><path d="M 38 38 L 304 38 L 304 231 L 38 231 Z M 38 38 " clip-rule="nonzero"/></clipPath><clipPath id="2db2276fcb"><path d="M 0.00390625 163.566406 L 300.261719 -7.472656 L 374.511719 122.871094 L 74.253906 293.910156 Z M 0.00390625 163.566406 " clip-rule="nonzero"/></clipPath><clipPath id="9b254c9895"><path d="M 300.078125 -7.367188 L -0.175781 163.671875 L 74.074219 294.011719 L 374.328125 122.976562 Z M 300.078125 -7.367188 " clip-rule="nonzero"/></clipPath><clipPath id="29f393bab0"><path d="M 67 111 L 163 111 L 163 276 L 67 276 Z M 67 111 " clip-rule="nonzero"/></clipPath><clipPath id="31f2de31eb"><path d="M 0.00390625 163.566406 L 300.261719 -7.472656 L 374.511719 122.871094 L 74.253906 293.910156 Z M 0.00390625 163.566406 " clip-rule="nonzero"/></clipPath><clipPath id="31f878eb2b"><path d="M 300.078125 -7.367188 L -0.175781 163.671875 L 74.074219 294.011719 L 374.328125 122.976562 Z M 300.078125 -7.367188 " clip-rule="nonzero"/></clipPath><clipPath id="6c06eb8f29"><path d="M 68 125 L 140 125 L 140 256 L 68 256 Z M 68 125 " clip-rule="nonzero"/></clipPath><clipPath id="8aaf180e3c"><path d="M 0.00390625 163.566406 L 300.261719 -7.472656 L 374.511719 122.871094 L 74.253906 293.910156 Z M 0.00390625 163.566406 " clip-rule="nonzero"/></clipPath><clipPath id="4e37267b8b"><path d="M 300.078125 -7.367188 L -0.175781 163.671875 L 74.074219 294.011719 L 374.328125 122.976562 Z M 300.078125 -7.367188 " clip-rule="nonzero"/></clipPath><clipPath id="4832ad54a0"><rect x="0" width="375" y="0" height="294"/></clipPath><clipPath id="198b2ada89"><rect x="0" width="375" y="0" height="375"/></clipPath></defs><g transform="matrix(1, 0, 0, 1, 0, 0)"><g clip-path="url(#198b2ada89)"><g transform="matrix(1, 0, 0, 1, 110, 80)"><g clip-path="url(#0709f1dbdd)"><g fill="#ffffff" fill-opacity="1"><g transform="translate(13.692384, 222.734468)"><g><path d="M 119.085938 -203.039062 L 201.71875 1.6875 L 148.484375 1.6875 L 133.113281 -39.898438 L 134.695312 -40.480469 L 134.695312 -38.796875 L 57.65625 -38.796875 L 57.65625 -40.480469 L 59.238281 -39.898438 L 43.863281 1.6875 L -9.371094 1.6875 L 73.691406 -204.097656 L 118.660156 -204.097656 Z M 115.957031 -201.777344 L 117.519531 -202.410156 L 117.519531 -200.722656 L 74.832031 -200.722656 L 74.832031 -202.410156 L 76.394531 -201.777344 L -5.304688 0.632812 L -6.871094 0 L -6.871094 -1.6875 L 42.691406 -1.6875 L 42.691406 0 L 41.109375 -0.585938 L 56.480469 -42.167969 L 135.867188 -42.167969 L 151.242188 -0.585938 L 149.660156 0 L 149.660156 -1.6875 L 199.21875 -1.6875 L 199.21875 0 L 197.65625 0.632812 Z M 117.417969 -80.359375 L 94.84375 -139.242188 L 96.421875 -139.847656 L 96.421875 -138.160156 L 95.929688 -138.160156 L 95.929688 -139.847656 L 97.503906 -139.242188 L 74.933594 -80.359375 L 73.359375 -80.964844 L 73.359375 -82.652344 L 118.992188 -82.652344 L 118.992188 -80.964844 Z M 121.445312 -79.277344 L 70.90625 -79.277344 L 94.769531 -141.535156 L 97.582031 -141.535156 L 120.566406 -81.566406 Z M 121.445312 -79.277344 "/></g></g></g><g fill="#ffffff" fill-opacity="1"><g transform="translate(206.024343, 222.734468)"><g/></g></g><g fill="#000000" fill-opacity="1"><g transform="translate(13.692384, 222.734468)"><g><path d="M 117.515625 -202.40625 L 199.21875 0 L 149.65625 0 L 134.6875 -40.484375 L 57.65625 -40.484375 L 42.6875 0 L -6.875 0 L 74.828125 -202.40625 Z M 118.984375 -80.96875 L 96.421875 -139.84375 L 95.921875 -139.84375 L 73.359375 -80.96875 Z M 118.984375 -80.96875 "/></g></g></g><g fill="#000000" fill-opacity="1"><g transform="translate(206.024343, 222.734468)"><g/></g></g></g></g><g clip-path="url(#e0afbe49a4)"><g clip-path="url(#75a9f5408e)"><g transform="matrix(1, 0, 0, 1, 0, 0)"><g clip-path="url(#4832ad54a0)"><g clip-path="url(#3edb242d93)"><g clip-path="url(#c90b5c4436)"><g clip-path="url(#8bcd93916d)"><path fill="#000000" d="M 91.855469 274.8125 C 93.5 275.742188 95.164062 274.394531 96.429688 273.199219 C 99.140625 270.644531 100.113281 267.03125 101.917969 263.65625 C 103.992188 266.746094 105.175781 270.1875 107.824219 272.589844 C 108.652344 273.34375 109.402344 274.847656 110.796875 274.25 C 112.164062 273.664062 111.730469 272.175781 111.707031 270.992188 C 111.632812 266.480469 109.78125 262.546875 107.328125 258.367188 C 110.242188 259.335938 112.457031 260.992188 115.101562 261.449219 C 116.179688 261.636719 117.320312 262.269531 118.351562 261.625 C 119.390625 260.980469 121.101562 261.261719 121.371094 259.476562 C 121.644531 257.667969 120.144531 257.363281 119.097656 256.660156 C 115.207031 254.042969 110.601562 252.710938 106.828125 249.867188 C 106.003906 248.960938 105.171875 248.050781 104.347656 247.148438 C 105.082031 240.132812 103.582031 237.726562 96.628906 234.726562 C 96.683594 233.121094 95.785156 231.90625 94.980469 230.648438 C 93.730469 227.644531 92.488281 224.640625 91.242188 221.640625 C 90.726562 220.328125 90.214844 219.015625 89.703125 217.710938 C 88.121094 214.09375 86.535156 210.476562 84.957031 206.859375 C 84.179688 205.464844 83.410156 204.066406 82.636719 202.671875 C 81.730469 199.667969 80.5 196.796875 79.015625 194.035156 C 78.242188 192.597656 77.46875 191.15625 76.703125 189.714844 C 75.675781 189.445312 74.675781 189.070312 73.667969 188.710938 C 74.675781 189.074219 75.679688 189.449219 76.703125 189.714844 C 77.035156 188.398438 76.140625 187.445312 75.605469 186.449219 C 74.636719 184.648438 75.042969 183.476562 76.867188 182.707031 C 83.882812 180.660156 90.9375 178.730469 97.90625 176.535156 C 103.09375 174.898438 103.128906 174.695312 105.578125 179.308594 C 108.921875 185.625 112.777344 191.644531 116.21875 197.890625 C 120.347656 205.394531 123.804688 213.265625 127.695312 220.898438 C 129.859375 225.148438 132.367188 229.230469 134.597656 233.453125 C 135.226562 234.636719 136.109375 234.179688 136.90625 234.210938 C 144.269531 234.523438 151.453125 233.167969 158.628906 231.734375 C 166.289062 230.210938 173.847656 228.34375 181.324219 226.03125 C 191.480469 222.886719 201.421875 219.203125 210.808594 214.230469 C 221.515625 208.550781 232.320312 202.960938 242.203125 195.929688 C 259.605469 183.554688 275.011719 169.023438 287.738281 151.796875 C 292.65625 145.140625 292.65625 144.957031 288.257812 138.035156 C 285.136719 133.121094 282.046875 128.1875 278.746094 123.375 C 275.113281 118.066406 272.46875 112.085938 268.886719 106.734375 C 265.03125 100.972656 261.960938 94.828125 258.707031 88.75 C 257.804688 87.070312 258.1875 86.191406 259.28125 85.195312 C 265.492188 79.511719 271.714844 73.828125 277.964844 68.179688 C 283.703125 63 289.417969 57.796875 295.257812 52.738281 C 302.484375 46.476562 309.96875 40.511719 316.957031 33.964844 C 318.433594 32.597656 319.839844 31.199219 321.003906 29.363281 C 318.558594 28.8125 316.613281 29.875 314.640625 30.433594 C 303.835938 33.496094 293.046875 36.589844 282.296875 39.835938 C 269.929688 43.566406 257.3125 46.351562 244.925781 49.964844 C 229.878906 54.355469 214.753906 58.496094 199.769531 63.054688 C 190.460938 65.886719 181.128906 68.691406 171.878906 71.734375 C 165.222656 73.921875 158.605469 76.203125 151.761719 77.757812 C 150.34375 78.082031 149.308594 78.960938 148.273438 80.003906 C 139.691406 88.617188 130.382812 96.445312 121.445312 104.675781 C 112.78125 112.65625 103.90625 120.40625 95.398438 128.566406 C 90.105469 133.648438 84.816406 138.746094 79.445312 143.746094 C 73.886719 148.921875 68.304688 154.097656 63.050781 159.570312 C 55.8125 167.109375 47.917969 173.929688 40.269531 181.027344 C 34.09375 186.765625 28.109375 192.695312 22.023438 198.519531 C 21.570312 198.953125 21.136719 199.359375 21.09375 200.570312 C 36.972656 196.675781 51.972656 190.355469 67.523438 185.863281 C 67.84375 186.417969 68.167969 186.964844 68.484375 187.523438 C 69.144531 188.777344 68.976562 190.34375 70 191.453125 C 71.980469 194.511719 72.09375 198.496094 74.804688 201.203125 C 74.550781 202.691406 75.597656 203.683594 76.214844 204.835938 C 78.121094 208.921875 79.144531 213.421875 81.847656 217.152344 C 82.289062 218.332031 82.722656 219.507812 83.15625 220.691406 C 85.007812 225.136719 86.847656 229.582031 88.695312 234.027344 C 89.28125 235.445312 90.257812 236.699219 90.421875 238.285156 C 89.5625 241.832031 88.890625 245.269531 91.164062 248.703125 C 92.308594 250.433594 93.835938 251.339844 95.511719 252.246094 C 96.136719 253.4375 95.214844 254.558594 95.351562 255.730469 C 95.257812 260.035156 94.179688 264.097656 92.429688 268.015625 C 92.058594 268.84375 91.796875 269.726562 91.59375 270.613281 C 91.257812 272.058594 90.351562 273.957031 91.855469 274.8125 Z M 91.855469 274.8125 " fill-opacity="1" fill-rule="nonzero"/></g></g></g><g clip-path="url(#c41af2bc4f)"><g clip-path="url(#2db2276fcb)"><g clip-path="url(#9b254c9895)"><path fill="#7c3aed" d="M 284.101562 139.132812 C 284.90625 140.550781 285.640625 142.015625 286.539062 143.363281 C 287.484375 144.765625 287.371094 145.925781 286.328125 147.21875 C 283.65625 150.523438 281.242188 154.058594 278.394531 157.191406 C 268.238281 168.359375 257.859375 179.238281 245.488281 188.144531 C 237.265625 194.0625 229.09375 200.070312 220.21875 204.851562 C 213.414062 208.523438 206.488281 212.101562 199.253906 215.046875 C 190.421875 218.648438 181.535156 222.019531 172.332031 224.4375 C 161.738281 227.21875 150.992188 229.328125 140.058594 230.355469 C 138.683594 230.488281 137.804688 230.363281 137.019531 229.09375 C 133.175781 222.847656 129.972656 216.261719 126.90625 209.636719 C 124.015625 203.390625 120.460938 197.515625 117.304688 191.429688 C 114.550781 186.121094 111.28125 181.078125 108.1875 175.953125 C 107.203125 174.324219 107.390625 173.453125 109.386719 172.925781 C 115.261719 171.386719 121.113281 169.777344 126.945312 168.078125 C 145.324219 162.726562 163.800781 157.765625 182.429688 153.34375 C 187.855469 152.058594 192.78125 150.476562 196.832031 145.949219 C 203.714844 138.257812 211.363281 131.257812 218.683594 123.957031 C 229.585938 113.082031 240.808594 102.539062 251.972656 91.941406 C 253.992188 90.019531 254.871094 90.109375 256.136719 92.511719 C 259.007812 97.957031 261.917969 103.398438 265.101562 108.660156 C 271.308594 118.898438 277.714844 129.011719 284.035156 139.175781 C 284.058594 139.15625 284.082031 139.144531 284.101562 139.132812 Z M 66.480469 181.789062 C 57.800781 184.539062 49.121094 187.304688 40.453125 190.074219 C 39.832031 190.265625 39.117188 191.089844 38.613281 190.175781 C 38.203125 189.429688 38.996094 188.964844 39.542969 188.484375 C 42.269531 186.074219 45.066406 183.726562 47.65625 181.167969 C 53.851562 175.0625 60.082031 168.996094 66.046875 162.648438 C 71.378906 156.980469 77.210938 151.773438 82.824219 146.375 C 90.632812 138.867188 98.328125 131.238281 106.277344 123.886719 C 113.320312 117.382812 120.839844 111.382812 127.792969 104.78125 C 135.703125 97.269531 144.507812 90.710938 151.566406 82.3125 C 151.929688 81.875 152.367188 81.734375 152.886719 81.6875 C 157.902344 81.222656 162.464844 79.085938 167.191406 77.640625 C 185.964844 71.890625 204.652344 65.878906 223.546875 60.503906 C 237.671875 56.488281 251.699219 52.070312 266.015625 48.761719 C 277.972656 46.003906 289.84375 43.011719 301.511719 39.242188 C 302.195312 39.019531 302.984375 38.5625 303.460938 39.257812 C 304.054688 40.121094 303.019531 40.464844 302.550781 40.882812 C 298.421875 44.585938 294.242188 48.230469 290.113281 51.941406 C 283.039062 58.300781 276.136719 64.855469 268.910156 71.039062 C 257.601562 80.714844 246.84375 90.992188 235.949219 101.117188 C 228.683594 107.863281 221.625 114.84375 214.597656 121.851562 C 206.917969 129.507812 199.382812 137.304688 191.78125 145.046875 C 190.613281 146.234375 189.183594 147.105469 187.640625 147.546875 C 183.273438 148.800781 178.859375 149.886719 174.464844 151 C 164.195312 153.597656 153.90625 156.089844 143.667969 158.796875 C 135.558594 160.945312 127.554688 163.484375 119.4375 165.605469 C 108.359375 168.496094 97.542969 172.195312 86.597656 175.503906 C 89.304688 173.445312 92.019531 171.390625 94.726562 169.332031 C 96.011719 168.390625 97.296875 167.453125 98.582031 166.515625 C 101.527344 164.191406 104.472656 161.871094 107.417969 159.542969 C 108.984375 159.015625 110.167969 158 111.148438 156.703125 C 114.914062 154.46875 118.351562 151.796875 121.554688 148.804688 C 123.113281 147.777344 124.921875 147.082031 126.042969 145.464844 C 129.105469 143 132.160156 140.535156 135.222656 138.066406 C 137.007812 137.464844 137.992188 135.785156 139.535156 134.863281 C 147.171875 128.75 155.011719 122.882812 162.367188 116.421875 C 165.984375 114.359375 169.617188 112.324219 173.21875 110.230469 C 176.726562 108.195312 178.527344 104.855469 177.402344 102.640625 C 176.230469 100.351562 171.988281 99.488281 168.578125 100.941406 C 166.382812 101.882812 164.164062 102.835938 162.101562 104.039062 C 159.144531 105.761719 157.558594 108.523438 156.867188 111.835938 C 152.464844 114.042969 149.351562 117.898438 145.488281 120.796875 C 143.394531 122.371094 140.964844 123.53125 139.25 125.601562 C 137.863281 126.769531 136.472656 127.945312 135.089844 129.113281 C 131.933594 131.148438 129.1875 133.699219 126.367188 136.15625 C 124.917969 137.292969 123.46875 138.4375 122.015625 139.574219 C 118.429688 141.742188 115.4375 144.679688 112.175781 147.277344 C 110.171875 147.964844 109.183594 149.824219 107.746094 151.160156 C 104.558594 152.546875 101.972656 154.757812 99.464844 157.09375 C 99.296875 157.0625 99.089844 156.964844 98.960938 157.023438 C 98.703125 157.136719 98.734375 157.320312 99 157.4375 L 99.019531 157.363281 C 97.835938 158.195312 96.5 158.855469 95.746094 160.179688 C 91.519531 163.128906 87.203125 165.945312 83.28125 169.324219 C 82.238281 169.945312 81.183594 170.5625 80.136719 171.179688 C 78.460938 172.4375 77.3125 174.304688 75.335938 175.21875 C 72.089844 176.71875 70.027344 179.640625 67.390625 181.882812 C 67.074219 181.839844 66.742188 181.703125 66.480469 181.789062 Z M 66.480469 181.789062 " fill-opacity="1" fill-rule="nonzero"/></g></g></g><g clip-path="url(#29f393bab0)"><g clip-path="url(#31f2de31eb)"><g clip-path="url(#31f878eb2b)"><path fill="#000000" d="M 106.839844 249.859375 C 110.613281 252.703125 115.21875 254.039062 119.113281 256.652344 C 120.152344 257.347656 121.65625 257.660156 121.382812 259.46875 C 121.113281 261.253906 119.402344 260.972656 118.363281 261.617188 C 117.332031 262.261719 116.191406 261.632812 115.113281 261.441406 C 112.464844 260.980469 110.25 259.324219 107.339844 258.359375 C 109.792969 262.542969 111.636719 266.476562 111.71875 270.984375 C 111.738281 272.175781 112.167969 273.660156 110.808594 274.246094 C 109.410156 274.84375 108.664062 273.335938 107.835938 272.582031 C 105.1875 270.179688 104.003906 266.730469 101.929688 263.652344 C 100.125 267.023438 99.148438 270.640625 96.441406 273.191406 C 95.171875 274.394531 93.515625 275.742188 91.867188 274.804688 C 90.363281 273.949219 91.269531 272.050781 91.59375 270.613281 C 91.796875 269.726562 92.058594 268.84375 92.429688 268.015625 C 94.171875 264.097656 95.257812 260.035156 95.351562 255.730469 C 99.6875 254.785156 103.722656 253.21875 106.839844 249.859375 Z M 96.640625 234.71875 C 103.59375 237.71875 105.089844 240.117188 104.359375 247.140625 C 101.585938 249.148438 98.878906 251.277344 95.503906 252.246094 C 93.832031 251.347656 92.308594 250.445312 91.160156 248.707031 C 88.882812 245.273438 89.554688 241.828125 90.421875 238.285156 C 92.488281 237.097656 94.566406 235.90625 96.640625 234.71875 Z M 75.324219 175.207031 C 77.300781 174.296875 78.445312 172.429688 80.121094 171.171875 C 81.507812 173.449219 79.777344 176.328125 81.527344 178.535156 C 80.5625 180.578125 77.898438 180.722656 76.882812 182.699219 C 75.046875 183.472656 74.652344 184.644531 75.617188 186.441406 C 76.152344 187.4375 77.046875 188.390625 76.714844 189.710938 C 73.972656 188.984375 71.417969 187.527344 68.484375 187.523438 C 68.164062 186.972656 67.839844 186.417969 67.523438 185.863281 C 67.472656 184.53125 67.425781 183.195312 67.375 181.867188 C 70.015625 179.632812 72.074219 176.703125 75.324219 175.207031 Z M 84.972656 206.851562 C 86.550781 210.464844 88.136719 214.085938 89.714844 217.703125 C 87.089844 217.519531 84.464844 217.335938 81.84375 217.15625 C 79.136719 213.425781 78.125 208.929688 76.210938 204.839844 C 79.304688 204.785156 81.964844 206.558594 84.972656 206.851562 Z M 91.257812 221.640625 C 92.503906 224.640625 93.746094 227.644531 94.996094 230.644531 C 93.351562 232.632812 90.875 233.050781 88.691406 234.039062 C 86.84375 229.589844 85.003906 225.148438 83.152344 220.699219 C 85.855469 221.003906 88.558594 221.324219 91.257812 221.640625 Z M 74.808594 201.207031 C 72.101562 198.507812 71.984375 194.519531 70.003906 191.460938 C 73.183594 191.714844 75.863281 193.710938 79.023438 194.039062 C 80.511719 196.800781 81.738281 199.671875 82.648438 202.675781 C 80.03125 202.183594 77.421875 201.691406 74.808594 201.207031 Z M 84.179688 176.953125 C 83.875 174.40625 83.574219 171.859375 83.269531 169.316406 C 87.183594 165.941406 91.507812 163.121094 95.726562 160.175781 C 95.636719 163.257812 95.480469 166.328125 94.710938 169.332031 C 92.003906 171.390625 89.289062 173.445312 86.582031 175.503906 C 85.78125 175.984375 84.980469 176.472656 84.179688 176.953125 Z M 139.519531 134.867188 C 138.761719 131.792969 139.695312 128.675781 139.238281 125.597656 C 140.953125 123.53125 143.386719 122.367188 145.476562 120.796875 C 149.339844 117.886719 152.453125 114.03125 156.859375 111.832031 C 157.058594 114.53125 158.378906 115.980469 161.21875 115.691406 C 161.820312 115.628906 162.109375 115.972656 162.351562 116.421875 C 154.996094 122.882812 147.15625 128.75 139.519531 134.867188 Z M 121.539062 148.804688 C 118.34375 151.792969 114.90625 154.464844 111.132812 156.703125 C 111.144531 153.523438 112.398438 150.480469 112.160156 147.277344 C 115.421875 144.679688 118.414062 141.746094 122.003906 139.574219 C 121.84375 142.644531 121.6875 145.722656 121.539062 148.804688 Z M 135.207031 138.070312 C 132.144531 140.535156 129.089844 143 126.027344 145.46875 C 126.023438 142.363281 126.882812 139.28125 126.359375 136.152344 C 129.183594 133.703125 131.921875 131.148438 135.078125 129.109375 C 135.117188 132.09375 135.164062 135.078125 135.207031 138.070312 Z M 99 157.355469 C 99 157.355469 98.980469 157.433594 98.980469 157.433594 L 99.175781 157.203125 C 99.175781 157.203125 99.449219 157.085938 99.449219 157.085938 C 101.953125 154.753906 104.550781 152.542969 107.730469 151.152344 C 107.625 153.949219 107.515625 156.746094 107.40625 159.539062 C 104.460938 161.863281 101.515625 164.183594 98.574219 166.511719 C 98.359375 163.445312 99.609375 160.445312 99 157.355469 Z M 99 157.355469 " fill-opacity="1" fill-rule="nonzero"/></g></g></g><g clip-path="url(#6c06eb8f29)"><g clip-path="url(#8aaf180e3c)"><g clip-path="url(#4e37267b8b)"><path fill="#8c52ff" d="M 106.839844 249.859375 C 103.722656 253.21875 99.683594 254.78125 95.335938 255.730469 C 95.199219 254.558594 96.121094 253.4375 95.496094 252.246094 C 98.871094 251.277344 101.578125 249.148438 104.351562 247.136719 C 105.1875 248.050781 106.015625 248.957031 106.839844 249.859375 Z M 68.484375 187.523438 C 71.417969 187.527344 73.96875 188.984375 76.714844 189.710938 C 77.488281 191.144531 78.253906 192.59375 79.027344 194.03125 C 75.867188 193.707031 73.179688 191.707031 70.003906 191.449219 C 68.980469 190.347656 69.144531 188.777344 68.484375 187.523438 Z M 84.972656 206.851562 C 81.964844 206.554688 79.304688 204.785156 76.21875 204.839844 C 75.609375 203.6875 74.554688 202.699219 74.808594 201.207031 C 77.425781 201.699219 80.039062 202.179688 82.648438 202.675781 C 83.421875 204.0625 84.191406 205.457031 84.972656 206.851562 Z M 81.84375 217.160156 C 84.46875 217.34375 87.09375 217.527344 89.714844 217.707031 C 90.234375 219.019531 90.742188 220.328125 91.257812 221.640625 C 88.558594 221.324219 85.859375 221.011719 83.152344 220.699219 C 82.71875 219.515625 82.285156 218.332031 81.84375 217.160156 Z M 96.640625 234.71875 C 94.566406 235.90625 92.492188 237.09375 90.414062 238.289062 C 90.25 236.703125 89.273438 235.449219 88.691406 234.03125 C 90.871094 233.042969 93.347656 232.625 94.992188 230.640625 C 95.796875 231.898438 96.699219 233.117188 96.640625 234.71875 Z M 81.519531 178.539062 C 79.769531 176.324219 81.503906 173.453125 80.117188 171.175781 C 81.164062 170.554688 82.21875 169.9375 83.265625 169.320312 C 83.570312 171.863281 83.867188 174.410156 84.171875 176.957031 C 83.296875 177.480469 82.40625 178.011719 81.519531 178.539062 Z M 121.539062 148.804688 C 121.691406 145.726562 121.847656 142.648438 122.007812 139.570312 C 123.460938 138.433594 124.90625 137.289062 126.359375 136.152344 C 126.882812 139.28125 126.023438 142.363281 126.027344 145.46875 C 124.902344 147.078125 123.097656 147.773438 121.539062 148.804688 Z M 139.238281 125.597656 C 139.695312 128.675781 138.757812 131.800781 139.519531 134.867188 C 137.96875 135.789062 136.988281 137.46875 135.207031 138.070312 C 135.164062 135.078125 135.117188 132.09375 135.078125 129.109375 C 136.46875 127.9375 137.855469 126.765625 139.238281 125.597656 Z M 112.164062 147.269531 C 112.398438 150.472656 111.144531 153.515625 111.136719 156.691406 C 110.15625 157.988281 108.964844 159.011719 107.402344 159.535156 C 107.511719 156.738281 107.621094 153.941406 107.730469 151.144531 C 109.171875 149.816406 110.160156 147.964844 112.164062 147.269531 Z M 94.710938 169.332031 C 95.480469 166.328125 95.632812 163.257812 95.726562 160.175781 C 96.480469 158.847656 97.820312 158.1875 99 157.355469 C 99.609375 160.445312 98.359375 163.445312 98.566406 166.515625 C 97.28125 167.453125 95.996094 168.394531 94.710938 169.332031 Z M 98.949219 157.011719 C 99.082031 156.953125 99.28125 157.054688 99.449219 157.085938 C 99.449219 157.085938 99.175781 157.203125 99.175781 157.203125 L 98.980469 157.433594 C 98.714844 157.3125 98.683594 157.132812 98.949219 157.011719 Z M 98.949219 157.011719 " fill-opacity="1" fill-rule="nonzero"/></g></g></g></g></g></g></g></g></g></svg>