<svg width="16" height="16" viewBox="0 0 16 16" fill="none" xmlns="http://www.w3.org/2000/svg">
<g clip-path="url(#clip0_3_185)">
<path d="M7.34466 1.876C7.37322 1.72307 7.45437 1.58494 7.57405 1.48554C7.69374 1.38614 7.84441 1.33173 7.99999 1.33173C8.15557 1.33173 8.30624 1.38614 8.42592 1.48554C8.54561 1.58494 8.62676 1.72307 8.65532 1.876L9.35599 5.58133C9.40575 5.84476 9.53377 6.08707 9.72334 6.27664C9.91291 6.46621 10.1552 6.59423 10.4187 6.644L14.124 7.34466C14.2769 7.37323 14.415 7.45438 14.5144 7.57406C14.6138 7.69374 14.6683 7.84442 14.6683 8C14.6683 8.15557 14.6138 8.30625 14.5144 8.42593C14.415 8.54561 14.2769 8.62677 14.124 8.65533L10.4187 9.356C10.1552 9.40576 9.91291 9.53378 9.72334 9.72335C9.53377 9.91292 9.40575 10.1552 9.35599 10.4187L8.65532 14.124C8.62676 14.2769 8.54561 14.4151 8.42592 14.5145C8.30624 14.6138 8.15557 14.6683 7.99999 14.6683C7.84441 14.6683 7.69374 14.6138 7.57405 14.5145C7.45437 14.4151 7.37322 14.2769 7.34466 14.124L6.64399 10.4187C6.59423 10.1552 6.46621 9.91292 6.27664 9.72335C6.08707 9.53378 5.84475 9.40576 5.58132 9.356L1.87599 8.65533C1.72306 8.62677 1.58493 8.54561 1.48553 8.42593C1.38614 8.30625 1.33173 8.15557 1.33173 8C1.33173 7.84442 1.38614 7.69374 1.48553 7.57406C1.58493 7.45438 1.72306 7.37323 1.87599 7.34466L5.58132 6.644C5.84475 6.59423 6.08707 6.46621 6.27664 6.27664C6.46621 6.08707 6.59423 5.84476 6.64399 5.58133L7.34466 1.876Z" stroke="white" stroke-width="1.33333" stroke-linecap="round" stroke-linejoin="round"/>
<path d="M13.3333 1.33334V4" stroke="white" stroke-width="1.33333" stroke-linecap="round" stroke-linejoin="round"/>
<path d="M14.6667 2.66666H12" stroke="white" stroke-width="1.33333" stroke-linecap="round" stroke-linejoin="round"/>
<path d="M2.66665 14.6667C3.40303 14.6667 3.99998 14.0697 3.99998 13.3333C3.99998 12.597 3.40303 12 2.66665 12C1.93027 12 1.33331 12.597 1.33331 13.3333C1.33331 14.0697 1.93027 14.6667 2.66665 14.6667Z" stroke="white" stroke-width="1.33333" stroke-linecap="round" stroke-linejoin="round"/>
</g>
<defs>
<clipPath id="clip0_3_185">
<rect width="16" height="16" fill="white"/>
</clipPath>
</defs>
</svg>
