<svg width="25" height="24" viewBox="0 0 25 24" fill="none" xmlns="http://www.w3.org/2000/svg">
<path d="M12.6641 22C18.1869 22 22.6641 17.5228 22.6641 12C22.6641 6.47715 18.1869 2 12.6641 2C7.14121 2 2.66406 6.47715 2.66406 12C2.66406 17.5228 7.14121 22 12.6641 22Z" stroke="#7C86FF" stroke-width="2" stroke-linecap="round" stroke-linejoin="round"/>
<path d="M12.6641 18C15.9778 18 18.6641 15.3137 18.6641 12C18.6641 8.68629 15.9778 6 12.6641 6C9.35035 6 6.66406 8.68629 6.66406 12C6.66406 15.3137 9.35035 18 12.6641 18Z" stroke="#7C86FF" stroke-width="2" stroke-linecap="round" stroke-linejoin="round"/>
<path d="M12.6641 14C13.7686 14 14.6641 13.1046 14.6641 12C14.6641 10.8954 13.7686 10 12.6641 10C11.5595 10 10.6641 10.8954 10.6641 12C10.6641 13.1046 11.5595 14 12.6641 14Z" stroke="#7C86FF" stroke-width="2" stroke-linecap="round" stroke-linejoin="round"/>
</svg>
